<svg id="visual" viewBox="0 0 900 450" width="900" height="450" xmlns="http://www.w3.org/2000/svg" xmlns:xlink="http://www.w3.org/1999/xlink" version="1.1"><rect x="0" y="0" width="900" height="450" fill="#B45F06"></rect><g transform="translate(472.1102484895281 229.72243528361997)"><path d="M129.3 -179.6C162.6 -153.8 181.2 -109.3 185 -67.2C188.9 -25.2 178 14.6 171 61.5C164 108.5 160.7 162.7 132.9 185.3C105 207.9 52.5 198.9 5 192.1C-42.5 185.2 -85 180.4 -114.7 158.3C-144.3 136.3 -161.1 97 -184.4 53.3C-207.7 9.6 -237.6 -38.7 -228.3 -76.4C-219.1 -114 -170.7 -141.2 -126.1 -163.3C-81.5 -185.5 -40.8 -202.8 3.6 -207.7C48 -212.7 96 -205.5 129.3 -179.6" fill="#f39c40"></path></g></svg>