<svg id="visual" viewBox="0 0 900 450" width="900" height="450" xmlns="http://www.w3.org/2000/svg" xmlns:xlink="http://www.w3.org/1999/xlink" version="1.1"><rect x="0" y="0" width="900" height="450" fill="#B45F06"></rect><path d="M0 294L129 312L257 276L386 285L514 266L643 302L771 285L900 270L900 451L771 451L643 451L514 451L386 451L257 451L129 451L0 451Z" fill="#b45f06"></path><path d="M0 359L129 308L257 333L386 355L514 360L643 357L771 317L900 300L900 451L771 451L643 451L514 451L386 451L257 451L129 451L0 451Z" fill="#ab4f02"></path><path d="M0 341L129 379L257 352L386 373L514 382L643 364L771 338L900 370L900 451L771 451L643 451L514 451L386 451L257 451L129 451L0 451Z" fill="#a13e01"></path><path d="M0 395L129 381L257 402L386 370L514 402L643 403L771 379L900 397L900 451L771 451L643 451L514 451L386 451L257 451L129 451L0 451Z" fill="#962c01"></path><path d="M0 425L129 416L257 406L386 422L514 426L643 402L771 419L900 418L900 451L771 451L643 451L514 451L386 451L257 451L129 451L0 451Z" fill="#8b1601"></path></svg>